<?xml version="1.0" encoding="UTF-8" standalone="no"?>
<svg
   xmlns:dc="http://purl.org/dc/elements/1.1/"
   xmlns:cc="http://creativecommons.org/ns#"
   xmlns:rdf="http://www.w3.org/1999/02/22-rdf-syntax-ns#"
   xmlns:svg="http://www.w3.org/2000/svg"
   xmlns="http://www.w3.org/2000/svg"
   xmlns:sodipodi="http://sodipodi.sourceforge.net/DTD/sodipodi-0.dtd"
   xmlns:inkscape="http://www.inkscape.org/namespaces/inkscape"
   id="Layer_1"
   data-name="Layer 1"
   viewBox="0 0 1672.09 1672.1"
   version="1.1"
   sodipodi:docname="D-sek-sigill-bw.svg"
   inkscape:version="0.92.5 (2060ec1f9f, 2020-04-08)">
  <metadata
     id="metadata109">
    <rdf:RDF>
      <cc:Work
         rdf:about="">
        <dc:format>image/svg+xml</dc:format>
        <dc:type
           rdf:resource="http://purl.org/dc/dcmitype/StillImage" />
      </cc:Work>
    </rdf:RDF>
  </metadata>
  <sodipodi:namedview
     pagecolor="#ffffff"
     bordercolor="#666666"
     borderopacity="1"
     objecttolerance="10"
     gridtolerance="10"
     guidetolerance="10"
     inkscape:pageopacity="0"
     inkscape:pageshadow="2"
     inkscape:window-width="1848"
     inkscape:window-height="1016"
     id="namedview107"
     showgrid="false"
     inkscape:zoom="0.56455954"
     inkscape:cx="1082.4102"
     inkscape:cy="847.32568"
     inkscape:window-x="72"
     inkscape:window-y="27"
     inkscape:window-maximized="1"
     inkscape:current-layer="Layer_1" />
  <defs
     id="defs4">
    <style
       id="style2">.cls-1{fill:none;}.cls-1,.cls-2{stroke:#231f20;stroke-width:28px;}.cls-2,.cls-4{fill:#fff;}.cls-3{fill:#231f20;}</style>
  </defs>
  <title
     id="title6">sigill-bw</title>
  <circle
     class="cls-1"
     cx="851.86"
     cy="852.39"
     r="822.05"
     transform="translate(-369.03 835.67) rotate(-45)"
     id="circle8" />
  <circle
     class="cls-2"
     cx="836.06"
     cy="836.05"
     r="578.81"
     id="circle10"
     style="fill:#ffffff;fill-opacity:0" />
  <path
     class="cls-3"
     d="M340.21,319.41c-12.65-15.33-14.65-17.43-22.68-11.87L313.91,310c-1.78.12-4.15-2.75-3.53-4.6,10.7-10.45,23.08-21.48,38.72-34.39,15.16-12.53,27.07-20.21,42.15-25.69,25-8.79,52.5-3.07,72.14,20.71,14.63,17.72,20.88,43.17,9.39,69.57-6.59,15.1-18.74,28.36-33.26,40.35-9.74,8-18,13.28-23.94,18.16s-13.12,11.1-19.88,17.22c-1.8.41-4.33-2.33-4.14-4.37l3.12-3.38c6.71-7.15,7.75-8.82-6.22-25.74Zm61.62,36.91c12.79,15.48,20.76,22.86,37.68,8.89,28.42-23.47,24.58-54.13,2.3-81.1-26.1-31.61-57.11-31.77-83.77-9.76-6.7,5.54-10.75,11-11.08,12.91s2.28,5.37,8.48,12.87Z"
     transform="translate(-15.81 -16.34)"
     id="path12" />
  <path
     class="cls-3"
     d="M521.7,233.34c1.7.45,3.69,2.64,5,5a11.38,11.38,0,0,1,1.72,6.67L488.19,273.7c-1.7-.45-3.8-2.82-4.94-4.78a12.51,12.51,0,0,1-1.83-6.85Z"
     transform="translate(-15.81 -16.34)"
     id="path14" />
  <path
     class="cls-3"
     d="M579.11,165.43c3.28,3.3,8,10.28,11.79,17.87-.38,2.21-3,3.85-5,3.11-8.47-9.37-17.44-11.73-26.53-7.7-7.94,3.53-10.95,10.53-8,17.15,3.36,7.57,12.13,8.43,21.77,8.22,15.22-.41,30.79,1.51,37.93,17.59,7.84,17.13-4.52,32.14-22.88,40.28-11,4.88-21,6.18-28,4.28-5.2-4-9.75-11.75-12.9-19.86.27-1.94,3-3.85,5.13-2.73,8.53,10,21.41,16.08,34.08,10.45,7.57-3.36,11.32-10.23,8.21-17.23-4-8.89-12.92-11.25-23.69-11-14.29.46-29.27-2.17-35.32-15.8-7-15.7,2.51-30.56,21.62-39C566.44,167,573.6,166.29,579.11,165.43Z"
     transform="translate(-15.81 -16.34)"
     id="path16" />
  <path
     class="cls-3"
     d="M648.72,178.19c1,3.38,1.25,3.52,5.62,2.24l7.35-2.15c10.93-3.2,12.66-3.93,12.5-10.35l-.2-5.12c.84-1.54,4.28-2.33,5.68-1.23,1.14,4.63,2.19,9.71,3.65,14.68,1.57,5.36,3.42,10.21,5,14.73-.59,1.68-3.91,2.86-5.45,2l-2.59-4.42c-3.33-5.49-5.18-5.17-16.11-2l-7.35,2.15c-4.37,1.28-4.51,1.54-3.4,5.32L657,206.4c1.75,6,3.72,11.21,6.14,12.87,2.37,1.47,7.23,1.12,19.55-2.48,16.1-4.72,18.25-9.88,19.74-21.75,1.21-1,4-1.81,5.79-.83.66,8.87,1.18,19.5.5,23.8-12.63,3.27-23.22,6.15-34,9.29l-21.26,6.23c-8,2.32-15.44,4.73-24.66,7.87-1.62-.39-3.12-4.05-1.88-5.71l6-2.4c7.12-2.94,6.9-5.9,3.06-19L623.89,173c-3.84-13.11-5.19-15.52-12.89-14.56l-2.5.3c-1.94-.73-2.65-4.62-1.49-5.82,5.68-1.23,13.29-3.24,21.23-5.57l32-9.37c8.74-2.56,16.63-5.08,18.3-6,1.3,2.21,5,11.25,8.24,20-.33,1.82-3.65,3-5.39,2.23a52.06,52.06,0,0,0-6-7.3c-3.55-3.28-8.94-2.56-18.68.29l-10.53,3.08c-5,1.46-5,2.11-2.2,11.65Z"
     transform="translate(-15.81 -16.34)"
     id="path18" />
  <path
     class="cls-3"
     d="M744.48,153.42c.56,4.11,1,7.6,3.08,7.32,4.92-.66,7.46-3.51,11.31-9.05l12.39-18.17c1-1.6,4.42-7.49,4.23-8.92-.14-1-.84-1.56-3-1.69l-2.54-.29c-2-.77-2.31-4.7-.39-6,5.59-.34,11.57-.93,17.31-1.71,5.13-.69,12.69-1.92,17.15-2.94,1.93.37,2.46,4.27,1.22,5.9a55.55,55.55,0,0,0-9.93,3.84c-5.29,2.59-11.05,9.43-18.51,19.21l-5.5,7.21c-1.78,2.33-2.2,3.85-2.09,4.67.14,1,.74,2.41,6.81,8.69,9.73,10.18,22.09,24.39,30,30.43,3.93,2.81,7.79,3.54,12.18,3.58l2.93,0c1.25,1.5,1.66,4.58.39,6-6,.39-12.8,1.09-22.44,2.39-7.8,1.05-15.39,2.08-23.11,3.74-1.75-.6-2.5-4.67-1-5.92l2.79-1c3.38-1.29,3.8-2.81,2.78-4.14-1.27-1.71-6.67-7.66-9.37-10.64l-9.29-10c-3.68-4.1-7.77-9.61-11.87-9.05-3.69.5-3.56,1.52-2.7,7.88L749,187.07c1.82,13.54,2.85,16.54,10.56,16.33l4.15-.14c1.81,1,1.93,5,.6,6-7.44.58-15.26,1.43-23.06,2.48-8.21,1.11-16,2.36-22.08,3.6-1.54-.63-2.48-4.47-1-5.92l2.81-.8c7.46-2,7.69-5,5.86-18.54l-5.75-42.68c-1.82-13.54-2.85-16.53-10.55-16.33l-3.55.06c-2-1-2.33-4.91-.18-6,6.41-.45,14.24-1.29,22.44-2.4,7.8-1.05,15.57-2.3,22.28-3.63,1.75.6,2.48,4.47,1,5.92l-4,1.17c-6.84,2-7.09,4.72-5.27,18.26Z"
     transform="translate(-15.81 -16.34)"
     id="path20" />
  <path
     class="cls-3"
     d="M852.45,126.51c.1-5.59.31-5.79-4.66-5.87l-6.42-.11c-5.38-.1-10.15.24-13.72,3.69-2.32,2.45-3.82,4.91-6,9.84-1.27,1.43-4.57.75-5.57-.92a227.63,227.63,0,0,0,6-24.33c.65-1.23,3.75-1.18,4.56.08.36,3.11,3,3.57,9.46,3.68l60,1c7,.12,9.11,0,10.63-3.75,1.05-.81,4.15-.76,4.54.49a162.74,162.74,0,0,0-2.5,25c-.85,1.43-4.37,1.58-5.59.32-.55-4.36-1.52-8.31-4.37-10.84-2.45-2.32-7.19-3.44-14.64-3.57l-5.38-.09c-3.52-.06-3.94.14-4,5.73l-.91,52.78c-.23,13.66.34,16.57,8,17.53l5.58.71c1.63,1.27,1.15,5.2-.31,6-8.89-.56-16.76-.91-24.62-1-8.28-.14-16.15-.07-25.89.18-1.43-.86-1.78-4.8-.1-6l6.43-.51c7.67-.7,8.34-3.58,8.58-17.25Z"
     transform="translate(-15.81 -16.34)"
     id="path22" />
  <path
     class="cls-3"
     d="M952,186.8c-1.8,13.55-1.6,16.71,5.89,18.54l4,.95c1.47,1.45.55,5.3-1,5.93-7.33-1.39-15.1-2.64-22.9-3.67q-12.32-1.63-23.48-2.5c-1.33-1-1.22-5,.59-6l4.16.14c7.7.19,8.72-2.81,10.52-16.35l5.67-42.69c1.8-13.54,1.6-16.7-5.89-18.53l-4.05-1c-1.47-1.45-.54-5.29,1-5.92q11,2.08,23.31,3.72c7.8,1,15.63,1.87,23.07,2.44,1.33,1,1.22,5-.58,6l-4.16-.13c-7.71-.19-8.73,2.8-10.53,16.35Z"
     transform="translate(-15.81 -16.34)"
     id="path24" />
  <path
     class="cls-3"
     d="M982,169.85c7.27-27,33.45-42.23,63.84-34,33,8.88,43.76,34.94,37.36,58.73-7.43,27.58-33,41.48-62.22,33.63C988.41,219.38,975.4,194.44,982,169.85Zm41.62,50.87c13.79,3.72,27.53-3.52,34.1-27.91,6.24-23.19,2.86-44.89-15.93-49.95-11.39-3.07-27.37,2.92-34.47,29.31C1001.85,192.56,1004.25,215.5,1023.64,220.72Z"
     transform="translate(-15.81 -16.34)"
     id="path26" />
  <path
     class="cls-3"
     d="M1171.31,258.92c-1.74,3.76-8.79,19-9.81,22.15a7,7,0,0,1-4.35,0,7.39,7.39,0,0,1-1.79-1.06c-.66-3.5-2.13-9.2-7.91-26.26L1133,210.14c-3.27-10.19-5.52-17.62-6.91-20.55-2.2,3.77-5.07,10-7.77,15.79L1112.49,218c-3.75,8.08-6.06,14.53-6.91,16.88-2.83,7.58-2.74,10.82,2.82,14.08l4.15,2.38c1,1.82-.59,5.2-2.9,5.27-6.21-3.33-10.45-5.52-15.89-8s-9.11-4-16.42-6.92c-1.34-1.53-.06-5.28,2.15-5.62l4.58,1.44c5.61,1.68,8-.42,11.65-6.92,1.32-2.36,4.57-8.38,8.31-16.46l11.75-25.35c5-10.71,5.55-12.95,4.72-16.07-.62-2.12-5.37-6.14-7.08-7.39l-1.43-1.35c-.79-1.73,1.33-5.32,3.09-5.18,6.88,3.87,12.89,6.66,18.15,9.09,4.13,1.92,7,3,12.65,5.18-.31,5.11,1.1,11.92,5.59,25.86l8.64,26.14c2,6,5.88,16.87,7.16,19.52,1.07-1.33,1.77-2.83,3.68-7l5-10.71c3.74-8.08,6-14.53,6.9-16.88,2.84-7.58,2.65-10.63-2.16-13.55l-4.81-2.91c-1-1.82.59-5.2,2.9-5.27,5.84,3.16,10.07,5.35,15.89,8.05,5.45,2.52,9.11,4,16.42,6.92,1.34,1.53.06,5.28-2.15,5.62l-4.58-1.44c-5.61-1.68-8.14.34-11.65,6.92-1.32,2.36-4.57,8.38-8.31,16.46Z"
     transform="translate(-15.81 -16.34)"
     id="path28" />
  <path
     class="cls-3"
     d="M1236.2,262.71c-2,2.93-1.9,3.21,1.89,5.74l6.37,4.26c9.47,6.32,11.13,7.18,16,2.94l3.79-3.44c1.72-.35,4.54,1.78,4.59,3.56-2.82,3.85-6,7.92-8.91,12.22-3.1,4.65-5.63,9.18-8.11,13.26-1.66.63-4.7-1.15-5-2.88l1.73-4.82c2.07-6.08.64-7.29-8.83-13.61l-6.37-4.26c-3.79-2.53-4.07-2.47-6.26.8l-7.13,10.68c-3.45,5.16-6.21,10-5.92,13,.4,2.75,3.78,6.26,14.45,13.39,13.95,9.31,19.29,7.65,29.34,1.17,1.55.29,4,1.9,4.36,3.91-6.37,6.19-14.19,13.42-17.92,15.66-10.62-7.59-19.63-13.86-28.92-20.07l-18.42-12.3c-6.89-4.6-13.55-8.8-21.87-13.86-.74-1.49,1.1-5,3.16-5.1l5.69,3.05c6.83,3.56,9,1.5,16.54-9.87l23.92-35.8c7.59-11.37,8.56-13.95,2.88-19.24l-1.83-1.72c-.69-1.95,1.84-5,3.5-4.88,4.6,3.57,11,8.11,17.91,12.71l27.71,18.51c7.58,5.06,14.58,9.49,16.36,10.18-.86,2.41-5.41,11.07-10.07,19.16-1.61.92-4.65-.86-5.16-2.7a52.13,52.13,0,0,0,1.73-9.3c.23-4.82-3.78-8.5-12.22-14.13l-9.12-6.1c-4.3-2.87-4.82-2.47-10.34,5.79Z"
     transform="translate(-15.81 -16.34)"
     id="path30" />
  <path
     class="cls-3"
     d="M1335.57,383.83c-2.8,3.05-14.14,15.4-16.08,18.12a6.92,6.92,0,0,1-4.15-1.29,7.75,7.75,0,0,1-1.39-1.55c.44-3.53.77-9.41.44-27.42l-.49-46c0-10.7.09-18.47-.34-21.67-3.25,2.92-7.86,7.95-12.21,12.68L1292,326.94c-6,6.55-10.18,12-11.71,14-5,6.36-5.89,9.48-1.59,14.28l3.23,3.52c.38,2-2.14,4.78-4.37,4.14-4.9-5.06-8.27-8.44-12.69-12.5s-7.46-6.56-13.53-11.58c-.82-1.87,1.54-5,3.75-4.7l3.93,2.76c4.83,3.31,7.7,2,13.2-3,2-1.85,6.9-6.6,12.92-13.15l18.9-20.59c8-8.69,9.22-10.65,9.37-13.88.06-2.2-3.24-7.48-4.49-9.19l-1-1.71c-.23-1.9,2.88-4.67,4.52-4,5.37,5.78,10.25,10.26,14.52,14.18,3.35,3.08,5.78,5,10.48,8.78-1.84,4.76-2.57,11.68-2.54,26.33l.3,27.54c.12,6.29.47,17.85.88,20.76,1.43-.94,2.55-2.16,5.63-5.51l8-8.69c6-6.56,10.18-12,11.71-14,5-6.37,5.76-9.33,2.06-13.57l-3.7-4.24c-.38-2,2.14-4.78,4.37-4.14,4.6,4.79,8,8.16,12.69,12.5,4.43,4.06,7.46,6.57,13.54,11.58.81,1.87-1.55,5.05-3.76,4.71l-3.92-2.77c-4.83-3.31-7.86-2.15-13.21,3.06-2,1.84-6.9,6.59-12.92,13.15Z"
     transform="translate(-15.81 -16.34)"
     id="path32" />
  <path
     class="cls-3"
     d="M133.51,957.72c-8.89,1.42-15.23,2.81-17.82,6-2.15,2.53-3.11,5.6-.83,19.82,3.16,19.73,4.5,22.43,24.12,27.67,1.18,1.63,1.1,4.56-.18,5.68-7.69-.23-21.83-2-27-3.33-.84-7.53-3.11-22.84-6.31-42.75l-3-18.48C101.11,943.23,99.5,934.37,98,927c.48-1.54,4-2.64,5.1-1.18l1.74,5.19c2.76,8.12,3.2,9.7,21.68,6.73l66.12-10.6c18.48-3,18.76-4.65,18.66-13.2l-.08-5.09c.69-1.39,4.24-2,5.21-.47,1.07,8.94,2.17,17,3.48,25.14,1.26,7.82,2.72,15.79,4.33,23.55-.46,1.72-4,2.47-5.1,1.19l-1.34-3.8c-2.76-8.13-3.37-9.67-21.86-6.7Z"
     transform="translate(-15.81 -16.34)"
     id="path34" />
  <path
     class="cls-3"
     d="M187,1011.07c.61-1.7,4-2.37,5-1.38q2.38,9.43,5.6,19.75c2,6.53,4.24,13,6.51,19.08-.31,1.42-3.47,2.78-4.93,1.73l-1.41-3.33c-2.67-6.14-5.41-5.85-16.75-2.32l-24.23,7.56c-15.47,4.82-24.7,13.92-20.36,27.84,4.61,14.78,16.86,17.18,32.67,12.25l14.27-4.45c7.38-2.3,12.89-4.59,14.9-5.4,6.54-2.61,8.4-4.51,7.47-9.31l-.93-4.8c.6-1.69,3.7-2.66,5.09-1.21,1.48,6,2.54,10,4.1,14.94s2.74,8.19,5.12,14.62c-.21,1.76-3.36,3.12-4.88,1.9l-1.75-3.79c-2.18-4.6-5-5-11.26-3.47-2.29.53-8.06,2-15.45,4.26l-15.13,4.71c-11,3.43-20.67,3.24-27.54-.65s-12.29-12.19-15.13-21.3c-3-9.8-4.45-19.73-1.64-26.45,3-7.74,9.88-13.64,22.77-17.66l26.12-8.15c11.34-3.53,13.76-4.85,12.46-11.43Z"
     transform="translate(-15.81 -16.34)"
     id="path36" />
  <path
     class="cls-3"
     d="M204.12,1201.23c-3.25,1.57-16.38,7.89-18.82,9.47a6.13,6.13,0,0,1-2.94-2.38,6.67,6.67,0,0,1-.62-1.7c1.49-2.72,3.65-7.35,9.18-22l14.4-37.3c3.43-8.64,6-14.88,6.7-17.61-3.56,1.32-8.91,3.89-13.94,6.31l-10.86,5.24c-7,3.35-12.09,6.42-14,7.52-6.09,3.53-7.82,5.76-5.88,11l1.47,3.89c-.35,1.76-3.27,3.17-4.86,1.94-2.33-5.67-4-9.48-6.23-14.18s-3.91-7.71-7.2-13.72c-.06-1.77,2.87-3.58,4.54-2.58l2.29,3.49c2.83,4.23,5.57,4.11,11.64,1.78,2.19-.85,7.7-3.1,14.67-6.46l21.9-10.54c9.24-4.46,10.87-5.64,12-8.2.75-1.76-.21-7.09-.67-8.87l-.22-1.69c.43-1.6,3.83-2.84,4.94-1.78,2.48,6.4,5,11.59,7.17,16.13,1.71,3.57,3.05,5.92,5.64,10.47-3,3.26-5.85,8.61-10.53,20.45l-8.62,22.34c-1.93,5.12-5.37,14.57-6,17.06,1.45-.3,2.75-.93,6.32-2.65l9.24-4.45c7-3.36,12.09-6.42,14-7.52,6.09-3.53,7.65-5.68,6-10.3l-1.62-4.61c.34-1.77,3.26-3.17,4.85-1.94,2.18,5.35,3.81,9.15,6.23,14.18,2.27,4.71,3.92,7.71,7.21,13.71.05,1.78-2.87,3.59-4.55,2.59l-2.28-3.49c-2.84-4.23-5.65-4.27-11.65-1.79-2.18.86-7.69,3.11-14.67,6.47Z"
     transform="translate(-15.81 -16.34)"
     id="path38" />
  <path
     class="cls-3"
     d="M253.69,1214.44c9.21-6.29,11.89-7.47,8.92-14.38l-.72-1.68c-.37-1.5,2.95-4,4.51-2.65,6.89,8.81,13.08,17.22,20.09,27.48,7.41,10.85,12.06,20.53,14.1,28.29,4.12,15.93-1.6,30.53-15.42,40-12.94,8.83-26.81,8.94-40.33,1.61-8.23-4.4-15.66-12.41-23-23.11-4.47-6.54-8.56-14.43-11.3-18.44-2-3-6-8.52-10-13.67-.11-1.44,2.51-3.67,4.21-3.09l2.33,2.77c4.35,5.09,6.88,4,16.69-2.69Zm-16.53,34.84c-8.92,6.09-14.11,10.29-7.11,20.55,10.76,15.75,28,13.81,43.42,3.25,16.8-11.47,18.94-29.07,9.6-42.74-5.68-8.33-6.38-8.07-12.92-3.6Z"
     transform="translate(-15.81 -16.34)"
     id="path40" />
  <path
     class="cls-3"
     d="M361.52,1319.44c-1.86,3.59-6.39,9.33-11.65,14.52-1.93.27-4-1.5-3.89-3.28,5.5-9.51,5.06-17.57-.7-24-5-5.63-11.63-6.26-16.33-2.06-5.37,4.8-3.75,12.29-1,20.22,4.4,12.48,7,25.88-4.45,36.08-12.09,11-27.8,4.82-39.44-8.2-7-7.78-10.72-15.77-11-22,1.95-5.37,7.13-11.2,13-16,1.67-.28,4,1.5,3.63,3.52-6,9.74-7.61,22,.43,31,4.8,5.37,11.49,6.64,16.45,2.2,6.31-5.64,5.87-13.69,2.79-22.54-4.19-11.71-6-24.81,3.66-33.45,11.14-10,26-6.06,38.08,7.49C356.86,1309.36,359.34,1315.11,361.52,1319.44Z"
     transform="translate(-15.81 -16.34)"
     id="path42" />
  <path
     class="cls-3"
     d="M460.69,1371.83c4.45-6.12,4.51-6.52.72-9.27l-8.15-5.92c-13.41-9.73-18.5-11-32.46-3.09-1.65.13-4.39-2.53-3.92-4.41,8.19-6.06,16.93-13.51,21.65-17.87a2.26,2.26,0,0,1,2,.58,2.07,2.07,0,0,1,1,1.64c-1.92,4.17,0,5.8,9.92,13L511,1389.62c7.13,5.18,9.64,6.33,13.82,4.24a5.33,5.33,0,0,1,2.17.69,2.82,2.82,0,0,1,1.36,2.1c-5.79,4.92-16,16.6-19,21.58-1.58.64-4.27-.87-4.84-2.84,6.36-12.74,5.6-17.51-10-28.83l-8.3-6c-3.79-2.75-4.15-2.57-8.59,3.55L431.92,1447c-11.21,15.44-10.22,16.83-3.9,22.53l4.82,4.39c.28,1.76-1.77,4.27-3.36,4-8.23-6.42-14.68-11.33-21.09-16s-13.36-9.48-22.9-16c-.74-1.43,1.23-4.45,2.78-4.44l6.64,3.71c7.48,4.1,8.9,4.91,20.11-10.54Z"
     transform="translate(-15.81 -16.34)"
     id="path44" />
  <path
     class="cls-3"
     d="M501.58,1465.73c-1.49,2.68-1.42,2.92,2,4.85l5.81,3.24c8.65,4.82,10.15,5.45,14,1.43l3-3.24c1.47-.42,4.05,1.23,4.22,2.77-2.17,3.52-4.67,7.28-6.86,11.21-2.37,4.25-4.25,8.35-6.1,12-1.4.67-4.16-.66-4.58-2.13l1.16-4.3c1.37-5.42,0-6.37-8.61-11.19l-5.81-3.24c-3.46-1.93-3.71-1.86-5.37,1.13l-5.44,9.75c-2.62,4.72-4.68,9.14-4.22,11.65s3.71,5.17,13.46,10.6c12.74,7.1,17.25,5.28,25.51-1,1.36.14,3.56,1.37,4,3.08-5.09,5.82-11.36,12.63-14.44,14.82-9.73-5.83-18-10.63-26.47-15.36l-16.82-9.38c-6.29-3.51-12.35-6.68-19.92-10.48-.75-1.24.6-4.41,2.39-4.65l5.13,2.25c6.17,2.61,7.87.67,13.65-9.71l18.23-32.7c5.78-10.38,6.45-12.68,1.16-16.87l-1.71-1.36c-.74-1.65,1.24-4.46,2.69-4.48,4.23,2.77,10.12,6.26,16.41,9.76l25.31,14.11c6.92,3.86,13.3,7.2,14.89,7.68-.58,2.15-3.91,10-7.39,17.31-1.33.91-4.09-.42-4.66-2a45.31,45.31,0,0,0,.85-8.18c-.14-4.2-3.87-7.1-11.58-11.4l-8.33-4.64c-3.93-2.19-4.35-1.81-8.56,5.74Z"
     transform="translate(-15.81 -16.34)"
     id="path46" />
  <path
     class="cls-3"
     d="M580.57,1501.58c-1.32,3.35-2.45,6.19-.78,6.85,4,1.59,7.16.51,12.43-2l17.11-8.52c1.47-.78,6.54-3.81,7-5,.33-.84,0-1.54-1.51-2.53l-1.81-1.3c-1.18-1.43.25-4.55,2.25-4.72,4.39,2.12,9.18,4.21,13.86,6.06,4.19,1.66,10.45,3.94,14.26,5.06,1.31,1.1,0,4.28-1.58,5a49.73,49.73,0,0,0-9.16-1.3c-5.12-.28-12.4,2.46-22.2,6.71l-7.25,3.14c-2.33,1-3.3,2-3.56,2.65-.33.84-.46,2.14,1.47,9.49,3.06,11.85,6.4,27.88,9.84,35.82a17.07,17.07,0,0,0,7.72,7.89l2.21,1.27c.31,1.66-.69,4.18-2.26,4.72-4.72-2.26-10.17-4.61-18-7.72-6.36-2.52-12.56-5-19.12-7-1.07-1.2.09-4.61,1.76-4.92l2.54.43c3.11.45,4.07-.52,3.87-2-.24-1.83-1.81-8.65-2.59-12.05l-2.79-11.55c-1-4.68-1.81-10.59-5.16-11.92-3-1.19-3.34-.35-5.39,4.84l-4,10c-4.37,11-4.86,13.76,1.07,16.88l3.21,1.65c.94,1.54-.65,4.58-2.09,4.79-5.89-2.72-12.18-5.4-18.54-7.91-6.7-2.65-13.13-5-18.28-6.65-.91-1.13,0-4.45,1.75-4.92l2.48.59c6.52,1.61,7.95-.53,12.32-11.58l13.76-34.81c4.37-11,4.86-13.76-1.07-16.88l-2.71-1.46c-1.11-1.6.32-4.71,2.42-4.65,5.06,2.38,11.35,5.07,18.05,7.71,6.36,2.52,12.79,4.87,18.44,6.71,1.08,1.2,0,4.45-1.75,4.92l-3.55-.82c-6-1.41-7.38.57-11.75,11.61Z"
     transform="translate(-15.81 -16.34)"
     id="path48" />
  <path
     class="cls-3"
     d="M714.79,1573c-.83,3.5-4.21,17.69-4.52,20.57a6.11,6.11,0,0,1-3.7.79,7,7,0,0,1-1.71-.59c-1.17-2.87-3.41-7.47-11.29-21l-19.88-34.7c-4.55-8.11-7.76-14.06-9.44-16.31-1.23,3.6-2.6,9.38-3.89,14.8l-2.79,11.74c-1.79,7.53-2.64,13.43-3,15.58-1.1,6.95-.46,9.69,4.84,11.51l3.95,1.31c1.15,1.38.4,4.53-1.56,5-5.87-1.76-9.86-2.9-14.93-4.1s-8.45-1.83-15.19-3.06c-1.41-1.07-1-4.48.86-5.16l4.15.43c5.07.47,6.7-1.74,8.73-7.91.71-2.24,2.44-7.93,4.23-15.47l5.62-23.64c2.37-10,2.48-12,1.23-14.51-.9-1.69-5.64-4.3-7.31-5.06l-1.45-.9c-1-1.34.2-4.76,1.73-5,6.53,2.11,12.13,3.44,17,4.61,3.85.91,6.52,1.36,11.68,2.22.62,4.4,3,10,9.24,21.07l11.9,20.77c2.76,4.73,7.92,13.36,9.48,15.39.68-1.32,1-2.72,1.93-6.57l2.37-10c1.79-7.53,2.64-13.44,3-15.58,1.1-7,.42-9.52-4.19-11.17l-4.6-1.65c-1.15-1.39-.4-4.54,1.56-5,5.52,1.69,9.5,2.82,14.93,4.11,5.08,1.21,8.45,1.82,15.19,3.05,1.41,1.08,1,4.49-.86,5.16l-4.15-.43c-5.07-.46-6.88,1.7-8.73,7.92-.72,2.23-2.44,7.93-4.23,15.46Z"
     transform="translate(-15.81 -16.34)"
     id="path50" />
  <path
     class="cls-3"
     d="M771.2,1580.32c-1.44,11.8-1.22,14.54,5.3,16.06l3.53.79c1.3,1.25.53,4.6-.81,5.16-6.39-1.14-13.15-2.14-20-3q-10.71-1.3-20.43-1.94c-1.17-.87-1.11-4.3.45-5.2l3.62.07c6.69.09,7.56-2.53,9-14.32l4.51-37.17c1.43-11.79,1.22-14.54-5.31-16l-3.53-.79c-1.3-1.25-.53-4.6.81-5.16q9.58,1.71,20.3,3c6.79.82,13.61,1.47,20.08,1.89,1.17.86,1.11,4.3-.45,5.2l-3.61-.08c-6.7-.08-7.56,2.53-9,14.33Z"
     transform="translate(-15.81 -16.34)"
     id="path52" />
  <path
     class="cls-3"
     d="M856.22,1527.88c1.34,3.82,2.4,11,2.56,18.44a3.55,3.55,0,0,1-5.06.58c-3.13-10.53-9.29-15.74-17.93-16-7.56-.2-12.54,4.16-12.71,10.46-.2,7.2,6.36,11.16,14,14.61,12.09,5.37,23.6,12.71,23.18,28-.27,16.38-15.59,23.52-33,23-10.44-.29-18.83-3-23.58-7.13-2.56-5.11-3.24-12.87-2.68-20.42.94-1.41,3.84-1.88,5-.22,2.94,11.06,10.78,20.64,22.83,21,7.2.2,12.71-3.79,12.89-10.45.24-8.46-5.92-13.67-14.46-17.5-11.39-5-22.16-12.67-21.81-25.63.41-14.93,13.42-23,31.59-22.54C845.69,1524.35,851.58,1526.5,856.22,1527.88Z"
     transform="translate(-15.81 -16.34)"
     id="path54" />
  <path
     class="cls-3"
     d="M907.19,1552.82c.35,3.58.64,6.63,2.43,6.46,4.3-.42,6.6-2.81,10.13-7.49l11.37-15.37c1-1.36,4.09-6.36,4-7.62-.09-.89-.68-1.38-2.51-1.57l-2.2-.33c-1.7-.74-1.84-4.16-.14-5.23,4.88-.11,10.09-.43,15.11-.91,4.48-.43,11.09-1.25,15-2,1.67.38,2,3.79.86,5.16a48.33,48.33,0,0,0-8.75,3c-4.68,2.08-9.92,7.83-16.72,16.08l-5,6.08c-1.62,2-2,3.27-2,4,.09.9.56,2.12,5.63,7.78,8.11,9.16,18.38,21.92,25.06,27.43a17.14,17.14,0,0,0,10.46,3.51l2.55.12c1,1.35,1.29,4,.14,5.23-5.23.14-11.16.53-19.58,1.34-6.81.65-13.44,1.29-20.2,2.48-1.51-.58-2-4.14-.68-5.18l2.46-.78c3-1,3.39-2.31,2.55-3.5-1-1.52-5.54-6.88-7.79-9.55l-7.74-9c-3.06-3.68-6.43-8.6-10-8.26-3.23.31-3.14,1.21-2.61,6.76l1,10.75c1.13,11.83,1.93,14.47,8.63,14.55h3.61c1.54.94,1.51,4.38.32,5.21-6.48.26-13.31.74-20.12,1.39-7.16.69-14,1.53-19.3,2.4-1.32-.59-2-4-.67-5.18l2.47-.6c6.54-1.53,6.84-4.09,5.7-15.92l-3.58-37.27c-1.13-11.82-1.93-14.46-8.63-14.54l-3.08-.06c-1.71-.92-1.86-4.35,0-5.25,5.59-.18,12.42-.65,19.59-1.34,6.8-.66,13.6-1.49,19.47-2.41,1.5.57,2,4,.68,5.17l-3.53.89c-6,1.48-6.32,3.86-5.18,15.68Z"
     transform="translate(-15.81 -16.34)"
     id="path56" />
  <path
     class="cls-3"
     d="M1002.09,1563.41c-3.51.81-3.68.85-4.23,4.86l-1.2,9.15c-.85,6.67,0,7.77,3.76,7.44l4.33-.45c1.47.77,1.72,4.22.48,5.25-5.86,1-10.29,1.84-15,2.93a108.08,108.08,0,0,0-12,3.34c-1.91-.29-2.94-3.93-1.7-5l3-1.26c6.07-2.52,6.18-4.39,8.82-18.5l7.88-43.22c1-5.4,1.09-8,.21-10.21,4.09-2.25,9-8.76,9.65-10.93a2.91,2.91,0,0,1,1.67-.76c.71-.16,1.61.55,2.64,1.79,1.07,1.41,3.15,4.81,13.05,18.77l26.49,37.64c4.65,6.49,6.12,7.26,12.6,6.49l1.79-.23c1.61.55,2.33,4.45.65,5.21-5.34.87-11.16,2-18.17,3.67-6.67,1.55-11.88,3-17.41,4.6-1.88-.12-3-3.37-1.71-5l2.82-1.4c3-1.43,3.88-2.38,1.88-5.42l-6.69-10.46c-2.08-3.4-2.43-3.31-7.16-2.21Zm11.07-9.6c5.44-1.26,5.92-1.56,3.45-5-4.91-6.81-10.28-14.8-13-18.42-1.34,7-2.07,11.75-3.66,23.21-.4,3-.67,3.48,3.89,2.42Z"
     transform="translate(-15.81 -16.34)"
     id="path58" />
  <path
     class="cls-3"
     d="M1141.92,1483.93c-8.21,4.09-8.54,4.65-6.37,9l11.78,23.69c8.5,17.09,10.11,16.69,18.17,13.89l5.15-1.76c1.69.56,3,3.54,2,4.83-8.54,3.85-15.88,7.29-23,10.82s-14.26,7.3-20.22,10.67c-1.61,0-3.22-2.83-2.65-4.52l2.09-1.44c7-4.9,8.23-6.1-.27-23.19l-29.83-60c-8.5-17.08-10.19-16.84-18.24-14l-3.79,1.28c-1.53-.24-3-3.55-2-4.83,7.25-3.21,14.9-6.82,22-10.35s14.26-7.29,20.38-10.74c1.61,0,3.38,3.15,2.65,4.51l-2.5,1.85c-6.93,5.06-8.3,5.94.2,23l9.7,19.5c2.24,4.51,2.89,4.6,11.11.51l37.71-18.76c8.22-4.09,8.54-4.66,6.3-9.17l-9.7-19.5c-8.5-17.08-10.2-16.84-18.25-14l-3.79,1.28c-1.53-.25-3-3.55-2-4.83q11.36-5.06,22-10.34c7.09-3.53,14.26-7.3,20.55-10.83,1.61,0,3.37,3.14,2.64,4.51l-2.66,1.93c-6.93,5.06-8.3,5.94.2,23l29.82,60c8.5,17.09,10.19,16.85,18.25,14l3.79-1.28c1.68.56,3,3.54,2,4.83-7.25,3.21-14.59,6.65-21.68,10.18q-11.12,5.53-21.51,11.31c-1.61,0-3.22-2.83-2.65-4.52l3.3-2.24c7.1-4.74,8.31-5.94-.19-23l-11.79-23.69c-2.16-4.35-2.8-4.43-11-.34Z"
     transform="translate(-15.81 -16.34)"
     id="path60" />
  <path
     class="cls-3"
     d="M1219.28,1388.11c-3.33-4.47-2.74-10.3,1.89-13.74a9.33,9.33,0,0,1,12.84,1.88c3.55,4.77,2.73,10.31-1.45,13.42C1228.08,1393,1223.08,1392.92,1219.28,1388.11Zm22.11,65c-14.51-19.49-10.81-45.58,11.14-61.91,23.83-17.73,47.42-11.06,60.21,6.13,14.83,19.93,10.52,44.89-10.56,60.58C1278.64,1475.42,1254.61,1470.87,1241.39,1453.1Zm1.72-82.72a9.49,9.49,0,0,1,1.88-13.74,9.22,9.22,0,0,1,12.85,1.88c3.54,4.77,2.87,10.2-1.46,13.42S1246.9,1375.18,1243.11,1370.38Zm55.42,81.71c10-7.41,12.42-20.69-.69-38.3-12.46-16.75-29.1-26.14-42.67-16-8.23,6.13-12.75,20.26,1.44,39.32C1267.57,1451.8,1284.52,1462.52,1298.53,1452.09Z"
     transform="translate(-15.81 -16.34)"
     id="path62" />
  <path
     class="cls-3"
     d="M1400,1350.42c3.19,3.18,4.59,4.33,7.64,2.29a3,3,0,0,1,2,2.54c-4.7,7.51-12.58,19-19.57,26-10.93,11-23.27,17.46-35.87,17.86-10.19.26-20.5-4.43-27.51-11.43s-12.24-16.53-12.25-28.49c0-11.71,6-25.85,17.65-37.57,8-8,18.69-14.4,21.74-16.19a176.82,176.82,0,0,0,15.8,13.22c.64,1.4-1.39,3.95-3.18,3.95-12.09-6.22-21.51-4.18-30.54,4.87-12.46,12.49-8.87,29.79,4.51,43.14,15.92,15.89,34.51,16.13,46,4.66,5.09-5.1,5.21-6.5,1.52-10.18l-5.36-5.34c-4.84-4.83-6.11-5.6-12.6-.88l-3.69,2.68c-1.65.38-4.07-2.29-3.31-4.07,5.09-4.59,10-9,15.77-14.79,4.19-4.2,7.63-8.15,11.69-12.74,1.78-.76,4.46,1.65,4,3.44l-1.52,2.29c-2.93,4.46-2.16,5.47,2.81,10.43Z"
     transform="translate(-15.81 -16.34)"
     id="path64" />
  <path
     class="cls-3"
     d="M1399.53,1247.46c3.86,1.19,10.31,4.63,16.35,8.89.61,1.85-.77,4.2-2.54,4.42-10.33-3.73-18.18-1.87-23.5,4.93-4.65,6-4.1,12.56.86,16.44,5.68,4.43,12.76,1.51,20.07-2.59,11.51-6.54,24.25-11.44,36.3-2,13,10,9.67,26.52-1.08,40.28-6.43,8.22-13.63,13.34-19.74,14.73-5.63-1-12.29-5-18-10-.58-1.59.76-4.19,2.82-4.19,10.64,4.21,23,3.59,30.43-5.91,4.44-5.67,4.5-12.48-.75-16.58-6.66-5.21-14.52-3.35-22.67,1.24-10.78,6.2-23.36,10.3-33.57,2.32-11.77-9.2-10.57-24.48.63-38.8C1390.44,1253.83,1395.65,1250.37,1399.53,1247.46Z"
     transform="translate(-15.81 -16.34)"
     id="path66" />
  <path
     class="cls-3"
     d="M1449.84,1221.25c3.09,1.85,5.72,3.42,6.64,1.87,2.22-3.7,1.66-7,0-12.59l-5.65-18.27c-.53-1.57-2.69-7.07-3.78-7.71-.77-.47-1.51-.28-2.74,1.08l-1.57,1.58c-1.61.93-4.45-1-4.3-3,2.8-4,5.64-8.37,8.23-12.7,2.3-3.86,5.57-9.67,7.29-13.25,1.3-1.12,4.23.64,4.67,2.37a48.79,48.79,0,0,0-2.77,8.83c-1.1,5,.42,12.63,3,23l1.92,7.66c.63,2.47,1.43,3.58,2,4,.77.46,2,.8,9.6.08,12.19-1.1,28.55-1.8,36.94-3.92a17.07,17.07,0,0,0,9-6.34l1.6-2c1.7,0,4,1.35,4.3,3-3,4.29-6.19,9.3-10.54,16.56-3.51,5.87-6.93,11.58-10,17.73-1.36.87-4.54-.83-4.58-2.53l.83-2.44c1-3,.15-4.1-1.3-4.13-1.85-.06-8.83.38-12.31.6l-11.86.88c-4.78.29-10.74.08-12.59,3.17-1.66,2.78-.89,3.24,3.9,6.11l9.27,5.54c10.2,6.1,12.79,7,16.83,1.68l2.15-2.91c1.67-.68,4.42,1.38,4.39,2.83-3.64,5.38-7.3,11.16-10.81,17-3.7,6.18-7,12.14-9.52,17-1.26.71-4.38-.74-4.57-2.52l1-2.35c2.65-6.18.77-7.94-9.43-14l-32.13-19.21c-10.2-6.1-12.79-7-16.83-1.68l-1.88,2.44c-1.76.84-4.6-1.07-4.2-3.14,3.17-4.6,6.84-10.38,10.53-16.56,3.51-5.87,6.87-11.83,9.61-17.12,1.36-.86,4.39.74,4.57,2.53l-1.38,3.37c-2.37,5.71-.64,7.37,9.56,13.47Z"
     transform="translate(-15.81 -16.34)"
     id="path68" />
  <path
     class="cls-3"
     d="M1493.41,1171c-22.39-9.45-32.43-33.8-21.8-59,11.54-27.36,35.26-33.57,55-25.25,22.89,9.65,31.85,33.35,21.64,57.57C1536.84,1171.32,1513.82,1179.59,1493.41,1171Zm48.73-29.86c4.83-11.44.22-24.13-20-32.66-19.24-8.12-38.33-7.77-44.91,7.82-4,9.46-.71,23.93,21.18,33.16C1515.31,1156.58,1535.36,1157.22,1542.14,1141.13Z"
     transform="translate(-15.81 -16.34)"
     id="path70" />
  <path
     class="cls-3"
     d="M1555.71,1046c5.39,1.47,10.69,2.53,13.25,1.36,1.76-1,3.74-3.46,6.33-13,3.58-13.21,3.47-16.22-7.62-24.83-.49-1.62.34-4,2-4.67,6.24,2.44,14.66,7.15,18.44,10.41-2.94,9.46-6,20-8.31,28.52l-4.71,17.37q-2.83,10.43-4.86,20c-1,1-4.42.48-5.08-1.2l.59-3.56c1-6.62-1.41-7.85-12.87-11l-36.14-9.81c-11.46-3.11-13.86-3.21-16.47,3l-1.61,3.85c-1.42,1.11-4.63-.14-5-1.54,2.19-6.68,4.15-13.24,6-20.18,1.79-6.6,3.41-13.25,4.76-19.6,1-1,4.42-.48,5.08,1.19l-.59,3.57c-1,6.62,1.41,7.85,12.88,11Z"
     transform="translate(-15.81 -16.34)"
     id="path72" />
  <path
     class="cls-3"
     d="M1570,966.94c-.5,3.57-.52,3.74,3,5.7l8.1,4.41c5.91,3.2,7.23,2.84,8.3-.82l1.14-4.21c1.24-1.09,4.55-.08,5.06,1.45-1.18,5.83-2,10.26-2.67,15.07a106.16,106.16,0,0,0-1.2,12.37c-1,1.68-4.73,1.34-5.24-.19l-.09-3.29c-.16-6.56-1.87-7.35-14.07-14.89l-37.49-22.92c-4.69-2.84-7.08-3.91-9.45-3.88-.62-4.63-4.91-11.6-6.71-12.94a3,3,0,0,1-.11-1.84c.1-.71,1.09-1.3,2.62-1.81,1.7-.48,5.62-1.2,22.21-5.41l44.66-11.15c7.73-2,9-3.09,10.6-9.41l.43-1.76c1.09-1.3,5-.56,5.09,1.27-1.11,5.29-2.12,11.15-3.13,18.28-1,6.77-1.53,12.15-2,17.9-.78,1.71-4.22,1.59-5.24-.2l-.28-3.13c-.27-3.3-.83-4.47-4.39-3.7L1577,944.3c-3.92.72-4,1.08-4.65,5.89Zm-5-13.79c.78-5.52.68-6.08-3.47-5-8.12,2.13-17.5,4.26-21.86,5.46,6,3.76,10.22,6.17,20.34,11.77,2.7,1.48,3,1.88,3.66-2.75Z"
     transform="translate(-15.81 -16.34)"
     id="path74" />
  <path
     d="M 775.03906 369.08984 L 520.90039 485.58984 L 520.90039 547.53906 C 538.02039 547.53906 552.63047 553.53906 564.73047 565.53906 C 576.83047 577.53906 582.86961 592.1007 582.84961 609.2207 L 582.84961 1115.2207 L 583.16016 1109.5 A 60.15 60.15 0 0 1 565 1153.5 C 552.91333 1165.68 538.21372 1171.7695 520.90039 1171.7695 L 513.18945 1171.7695 L 513.18945 1240.5801 L 870.98047 1240.5801 C 987.64714 1240.5801 1066.5402 1204.506 1107.6602 1132.3594 C 1141.9268 1072.4194 1159.0636 964.40078 1159.0703 808.30078 C 1159.077 652.20078 1141.9402 544.06086 1107.6602 483.88086 C 1066.5468 411.95419 987.6538 375.97589 870.98047 375.94922 C 840.52047 375.94922 813.1069 378.13023 788.74023 382.49023 L 788.74023 369.08984 L 775.03906 369.08984 z M 829.25 410.21094 L 912.91992 410.21094 A 40.83 40.83 0 0 1 942.49023 422.35938 C 950.78357 430.45936 954.92659 440.12603 954.91992 451.35938 L 954.91992 1164.6602 A 40.22 40.22 0 0 1 942.76953 1194.5801 A 40.45 40.45 0 0 1 912.94922 1207.1191 L 883.80078 1207.1191 L 883.80078 1170.8809 L 850.41992 1170.8809 C 833.27326 1170.8809 818.70427 1164.8398 806.71094 1152.7598 C 794.7176 1140.6798 788.7176 1126.0604 788.71094 1108.9004 L 788.71094 444.4707 C 793.28427 421.6307 806.79667 410.21094 829.25 410.21094 z M 654.82031 461.32031 A 197 197 0 0 0 637.09961 485.86914 L 602.56055 485.58984 L 654.82031 461.32031 z M 985.18945 478.74023 L 1054.8496 478.74023 A 190.92 190.92 0 0 1 1077.6895 509.56055 L 986.32031 509.86914 C 985.92031 499.20247 985.54279 488.8269 985.18945 478.74023 z M 582 526.98047 L 618.2793 526.98047 C 612.9193 540.14047 609.5893 548.96906 608.2793 553.53906 C 601.7993 543.6724 593.04 534.82047 582 526.98047 z M 987.75 550.98047 L 1096.8203 550.98047 C 1100.8203 564.50714 1103.6742 574.78388 1105.3809 581.81055 L 987.75 581.81055 L 987.75 550.98047 z M 1115.9492 622.65039 C 1117.1026 630.65039 1118.3402 641.02596 1119.6602 653.7793 L 987.75 653.7793 L 987.75 622.91992 L 1115.9492 622.65039 z M 987.75 694.89062 L 1123.1094 694.89062 C 1123.4694 703.09064 1123.8438 713.4662 1124.2305 726.01953 L 987.75 726.01953 L 987.75 694.89062 z M 987.75 767.14062 L 1124.8105 767.14062 L 1124.8105 797.96094 L 988.33008 797.96094 L 987.75 767.14062 z M 988.59961 839.08008 L 1124.8105 839.08008 L 1124.8105 869.92969 L 988.59961 869.92969 L 988.59961 839.08008 z M 987.75 911.05078 L 1123.6504 911.05078 C 1123.0704 924.93745 1122.5026 935.30372 1121.9492 942.15039 L 987.75 942.15039 L 987.75 911.05078 z M 987.75 983.25977 L 1118.8105 983.25977 C 1116.1305 996.9731 1113.8476 1007.2591 1111.9609 1014.1191 L 987.75 1014.1191 L 987.75 983.25977 z M 987.75 1055.2305 L 1105.1094 1055.2305 A 303.59 303.59 0 0 1 1093.9609 1086.0605 L 987.75 1086.0605 L 987.75 1055.2305 z M 625.98047 1112.9199 C 633.02047 1128.3333 637.78286 1137.9464 640.26953 1141.7598 L 618.55078 1141.1797 A 105.52 105.52 0 0 0 625.98047 1112.9199 z M 984.85938 1127.1699 L 1070.8594 1127.1699 C 1061.126 1140.1633 1051.7001 1150.4493 1042.5801 1158.0293 L 982.58008 1158.0293 C 983.34008 1149.8626 984.09938 1139.5766 984.85938 1127.1699 z M 584.56055 1184.0098 L 674.56055 1184.0098 A 208.11 208.11 0 0 0 704.80078 1206.2695 L 552.58008 1206.2695 L 553.16016 1201.4297 C 562.28682 1198.5697 572.75388 1192.7631 584.56055 1184.0098 z "
     id="path76"
     style="stroke:none;stroke-opacity:1;fill:#231f20;fill-opacity:1" />
</svg>
